<svg width="1440" height="176" viewBox="0 0 1440 176" fill="none" xmlns="http://www.w3.org/2000/svg">
<g clip-path="url(#clip0_0_45)">
<path opacity="0.33" d="M758.88 57.552C1052.5 -97.8562 1137.74 117.392 1220.11 57.5519C1344.96 -33.6161 1440 70.9279 1440 70.9279L1440 176L0 176L-9.18569e-06 70.9281C-9.18569e-06 70.9281 89.4239 24.992 136.656 19.36C183.888 13.552 227.088 41.008 245.808 58.256C279.36 88.704 366.768 160.688 439.344 167.728C511.92 174.768 730.944 72.16 758.88 57.552Z" fill="#773AEE"/>
<path opacity="0.66" d="M383.04 57.552C448.56 57.552 494.208 98.384 568.944 126.368C610.128 141.68 785.376 144.144 934.704 57.552C1084.03 -29.0401 1066.75 118.096 1149.55 57.5519C1273.39 -32.2081 1440 105.952 1440 105.952L1440 176L0 176L-5.61604e-06 111.76C-5.61604e-06 111.76 40.6079 144.32 132.624 144.32C273.312 144.144 322.992 57.552 383.04 57.552Z" fill="#773AEE"/>
<path d="M336.816 125.136C624.816 226.336 719.856 9.85594 905.76 90.816C1091.52 172.832 1091.52 166.496 1173.89 139.744C1255.68 112.992 1249.49 96.976 1310.54 83.5999C1398.82 63.8879 1440 176 1440 176L0 176C0 176 14.2559 104.016 120.384 91.3441C226.512 78.672 245.376 93.28 336.816 125.136Z" fill="#773AEE"/>
</g>
<defs>
<clipPath id="clip0_0_45">
<rect width="1440" height="176" fill="white" transform="translate(1440 176) rotate(180)"/>
</clipPath>
</defs>
</svg>
